<?xml version="1.0" encoding="UTF-8"?>
<svg width="31px" height="34px" viewBox="0 0 31 34" version="1.1" xmlns="http://www.w3.org/2000/svg" xmlns:xlink="http://www.w3.org/1999/xlink">
    <!-- Generator: Sketch 60.1 (88133) - https://sketch.com -->
    <title>logo-white</title>
    <desc>Created with Sketch.</desc>
    <defs>
        <polygon id="path-1" points="0.545278474 0.87 30.7232 0.87 30.7232 11.7136 0.545278474 11.7136"></polygon>
        <polygon id="path-3" points="0 0.9456 15.0457 0.9456 15.0457 15.9916 0 15.9916"></polygon>
        <polygon id="path-5" points="0.687924101 0.5611 8.9006 0.5611 8.9006 6 0.687924101 6"></polygon>
    </defs>
    <g id="logo-white" stroke="none" stroke-width="1" fill="none" fill-rule="evenodd">
        <g id="Group-28">
            <g id="Group-3" transform="translate(0.000000, 0.129900)">
                <mask id="mask-2" fill="white">
                    <use xlink:href="#path-1"></use>
                </mask>
                <g id="Clip-2"></g>
                <path d="M29.3962,7.5546 C26.9702,3.1536 22.7982,1.4106 18.1282,1.0416 C13.9592,0.7126 9.7452,0.9506 5.5512,0.9896 C5.1632,0.9926 4.6632,1.2776 4.4102,1.5896 C3.2552,3.0196 2.1582,4.4956 1.0702,5.9776 C0.8452,6.2826 0.4102,6.6866 0.5862,7.0316 C0.7542,7.3556 1.3042,7.2356 1.6632,7.2356 C6.2692,7.2496 10.8772,7.1886 15.4832,7.2796 C16.9152,7.3076 18.4142,7.5346 19.7472,8.0326 C21.5072,8.6896 22.7482,9.9206 23.1922,11.7136 L30.7232,11.7136 C30.5702,10.2996 30.1322,8.8906 29.3962,7.5546" id="Fill-1" fill="#FEFEFE" mask="url(#mask-2)"></path>
            </g>
            <path d="M30.8044,19.4433 C30.8044,22.2313 28.5444,24.4913 25.7564,24.4913 C22.9684,24.4913 20.7084,22.2313 20.7084,19.4433 C20.7084,16.6553 22.9684,14.3943 25.7564,14.3943 C28.5444,14.3943 30.8044,16.6553 30.8044,19.4433" id="Fill-4" fill="#FEFEFE"></path>
            <g id="Group-8" transform="translate(0.000000, 9.129900)">
                <mask id="mask-4" fill="white">
                    <use xlink:href="#path-3"></use>
                </mask>
                <g id="Clip-7"></g>
                <path d="M14.3337,8.4286 L7.5627,8.4286 L7.5627,1.6576 C7.5627,1.2646 7.2437,0.9456 6.8497,0.9456 L0.7127,0.9456 C0.3187,0.9456 -0.0003,1.2646 -0.0003,1.6576 L-0.0003,9.1416 L-0.0003,15.2796 C-0.0003,15.6726 0.3187,15.9916 0.7127,15.9916 L6.8497,15.9916 L14.3337,15.9916 C14.7267,15.9916 15.0457,15.6726 15.0457,15.2796 L15.0457,9.1416 C15.0457,8.7476 14.7267,8.4286 14.3337,8.4286" id="Fill-6" fill="#FEFEFE" mask="url(#mask-4)"></path>
            </g>
            <path d="M17.1501,33.122 C17.2631,32.679 17.3681,32.261 17.4781,31.846 C17.4871,31.813 17.5391,31.783 17.5761,31.77 C17.6151,31.758 17.6611,31.767 17.7051,31.767 C18.8091,31.767 19.9151,31.766 21.0201,31.768 C21.1451,31.769 21.2141,31.751 21.2381,31.604 C21.2721,31.393 21.3381,31.186 21.3971,30.979 C21.4201,30.9 21.3891,30.876 21.3181,30.874 C21.2751,30.874 21.2321,30.873 21.1891,30.873 C19.6731,30.873 18.1581,30.872 16.6421,30.876 C16.5291,30.876 16.4441,30.847 16.3711,30.761 C16.2421,30.607 16.0881,30.47 15.9831,30.302 C15.9221,30.203 15.9071,30.05 15.9281,29.933 C15.9871,29.62 16.0761,29.312 16.1531,29.004 C16.1561,28.991 16.1651,28.979 16.1661,28.967 C16.1771,28.654 16.3791,28.456 16.5871,28.257 C16.7601,28.09 16.9221,27.91 17.0961,27.742 C17.1301,27.709 17.1911,27.684 17.2391,27.684 C18.6251,27.681 20.0101,27.681 21.3971,27.682 C21.4341,27.682 21.4711,27.686 21.5241,27.69 C21.4821,27.874 21.4461,28.046 21.4041,28.217 C21.3471,28.442 21.2781,28.665 21.2321,28.893 C21.2091,29.007 21.1591,29.039 21.0501,29.038 C20.5151,29.034 19.9801,29.036 19.4441,29.036 C18.8441,29.036 18.2441,29.038 17.6431,29.034 C17.5411,29.034 17.4681,29.047 17.4601,29.171 C17.4561,29.234 17.4251,29.296 17.4151,29.358 C17.3871,29.515 17.3901,29.517 17.5531,29.517 L21.6851,29.517 C21.8531,29.517 22.0231,29.507 22.1901,29.521 C22.2681,29.527 22.3501,29.567 22.4161,29.614 C22.4911,29.669 22.5441,29.755 22.6171,29.814 C22.9061,30.047 22.9211,30.338 22.8271,30.667 C22.7351,30.99 22.6641,31.318 22.5771,31.643 C22.5161,31.871 22.4511,32.098 22.3751,32.321 C22.3471,32.399 22.2911,32.472 22.2331,32.533 C22.0711,32.705 21.8951,32.866 21.7351,33.041 C21.6751,33.106 21.6171,33.124 21.5351,33.123039 C20.4901,33.121 19.4451,33.122 18.4001,33.122 L17.3121,33.122 L17.1501,33.122 Z" id="Fill-9" fill="#FEFEFE"></path>
            <g id="Group-13" transform="translate(7.000000, 27.129900)">
                <mask id="mask-6" fill="white">
                    <use xlink:href="#path-5"></use>
                </mask>
                <g id="Clip-12"></g>
                <path d="M2.3796,5.9911 C2.0466,5.9911 1.7236,5.9921 1.4006,5.9891 C1.3716,5.9891 1.3386,5.9661 1.3176,5.9441 C1.1536,5.7831 1.0026,5.6091 0.8286,5.4621 C0.6696,5.3251 0.6696,5.1671 0.7116,4.9931 C0.8186,4.5541 0.9346,4.1171 1.0376,3.6771 C1.0956,3.4291 1.1806,3.2081 1.3856,3.0341 C1.5826,2.8681 1.7576,2.6751 1.9366,2.4871 C2.0086,2.4121 2.0856,2.3851 2.1886,2.3861 C3.7556,2.3871 5.3226,2.3871 6.8906,2.3871 C7.0656,2.3861 7.1086,2.4331 7.1616,2.1761 C7.2476,1.7581 7.3646,1.3471 7.4696,0.9341 C7.4986,0.8131 7.5266,0.6911 7.5576,0.5611 L8.9006,0.5611 C8.8776,0.6721 8.8576,0.7791 8.8306,0.8861 C8.6986,1.4211 8.5666,1.9561 8.4326,2.4911 C8.3306,2.8951 8.2256,3.3001 8.1246,3.7051 C8.0226,4.1141 7.9256,4.5251 7.8246,4.9351 C7.7796,5.1191 7.7426,5.3061 7.6816,5.4851 C7.6526,5.5641 7.5676,5.6231 7.5176,5.6961 C7.3466,5.9391 7.1216,6.0041 6.8236,6.0001 C5.5546,5.9821 4.2846,5.9921 3.0146,5.9921 L2.8376,5.9921 C2.8806,5.8041 2.9176,5.6331 2.9606,5.4631 C3.0176,5.2331 3.0836,5.0061 3.1336,4.7741 C3.1546,4.6751 3.1956,4.6351 3.2966,4.6361 C3.6036,4.6391 3.9096,4.6371 4.2166,4.6371 C4.9426,4.6371 5.6676,4.6351 6.3936,4.6391 C6.5046,4.6401 6.5616,4.6031 6.5856,4.4991 C6.6346,4.2981 6.6846,4.0971 6.7346,3.8971 C6.7626,3.7901 6.7406,3.7411 6.6136,3.7411 C5.2486,3.7451 3.8846,3.7451 2.5196,3.7411 C2.4106,3.7411 2.3626,3.7851 2.3396,3.8811 C2.2926,4.0781 2.2396,4.2731 2.1936,4.4701 C2.1596,4.6211 2.1746,4.6361 2.3256,4.6371 C2.4076,4.6371 2.4896,4.6391 2.5716,4.6371 C2.6726,4.6331 2.7126,4.6601 2.6826,4.7721 C2.5846,5.1381 2.4956,5.5071 2.4036,5.8751 C2.3966,5.9081 2.3906,5.9421 2.3796,5.9911" id="Fill-11" fill="#FEFEFE" mask="url(#mask-6)"></path>
            </g>
            <path d="M29.9099,33.122 L29.7759,33.122 C27.8029,33.122 25.8299,33.121 23.8559,33.124 C23.7639,33.124 23.6979,33.101 23.6329,33.031 C23.4849,32.868 23.3319,32.708 23.1659,32.564 C23.0159,32.434 23.0389,32.279 23.0759,32.125 C23.2029,31.597 23.3359,31.071 23.4719,30.546 C23.4899,30.475 23.5289,30.398 23.5809,30.346 C23.8259,30.091 24.0759,29.841 24.3319,29.595 C24.3759,29.553 24.4509,29.52 24.5119,29.52 C26.5709,29.517 28.6319,29.518 30.6909,29.516 C30.7959,29.516 30.8199,29.555 30.7969,29.647 C30.7039,30.016 30.6109,30.383 30.5199,30.751 C30.4959,30.85 30.4339,30.875 30.3399,30.875 C29.8479,30.872 29.3549,30.873 28.8629,30.873 C27.5419,30.873 26.2209,30.875 24.8989,30.871 C24.7899,30.871 24.7279,30.901 24.7039,31.009 C24.6569,31.205 24.6029,31.401 24.5579,31.598 C24.5229,31.753 24.5379,31.767 24.7009,31.767 L30.0249,31.767 C30.0729,31.767 30.1199,31.768 30.1679,31.768 C30.2399,31.768 30.2549,31.808 30.2389,31.871 C30.1359,32.27 30.0329,32.672 29.9299,33.071 C29.9269,33.084 29.9209,33.096 29.9099,33.122" id="Fill-14" fill="#FEFEFE"></path>
            <path d="M21.9841,27.6894 L23.5511,27.6894 C23.5191,27.8304 23.4921,27.9594 23.4611,28.0874 C23.3911,28.3724 23.3231,28.6574 23.2451,28.9394 C23.2341,28.9784 23.1701,29.0304 23.1291,29.0314 C22.6751,29.0384 22.2211,29.0354 21.7681,29.0364 C21.6741,29.0364 21.6621,28.9884 21.6811,28.9094 C21.7661,28.5674 21.8491,28.2234 21.9331,27.8804 C21.9491,27.8184 21.9661,27.7564 21.9841,27.6894" id="Fill-16" fill="#FEFEFE"></path>
            <path d="M15.1365,33.1035 C15.2035,32.8285 15.2685,32.5605 15.3335,32.2935 C15.3675,32.1565 15.4085,32.0195 15.4385,31.8805 C15.4535,31.8045 15.4875,31.7665 15.5665,31.7665 C16.0155,31.7675 16.4635,31.7685 16.9125,31.7665 C17.0055,31.7655 17.0265,31.8135 17.0075,31.8895 C16.9555,32.1125 16.9035,32.3335 16.8495,32.5555 C16.8105,32.7135 16.7735,32.8735 16.7255,33.0295 C16.7145,33.0665 16.6645,33.1175 16.6315,33.1185 C16.1535,33.1235 15.6735,33.1215 15.1955,33.1205 C15.1825,33.1205 15.1705,33.1135 15.1365,33.1035" id="Fill-18" fill="#FEFEFE"></path>
            <path d="M3.0495,27.6923 L8.1865,27.6923 C8.1535,27.8333 8.1255,27.9633 8.0945,28.0903 C8.0255,28.3763 7.9575,28.6603 7.8795,28.9423 C7.8685,28.9823 7.8035,29.0343 7.7625,29.0343 C7.3095,29.0413 3.2865,29.0383 2.8335,29.0393 C2.7395,29.0393 2.7275,28.9913 2.7465,28.9133 C2.8315,28.5703 2.9145,28.2263 2.9985,27.8833 C3.0135,27.8223 3.0315,27.7593 3.0495,27.6923" id="Fill-20" fill="#FEFEFE"></path>
            <path d="M5.0339,29.2919 C4.9929,29.4579 4.9539,29.6199 4.9139,29.7819 C4.8219,30.1509 4.7299,30.5199 4.6379,30.8889 C4.5479,31.2509 4.4569,31.6139 4.3659,31.9779 C4.2749,32.3379 4.1849,32.6969 4.0969,33.0589 C4.0879,33.0999 4.0789,33.1239 4.0289,33.1239 C3.5799,33.1219 3.1309,33.1229 2.6819,33.1219 C2.6739,33.1219 2.6659,33.1179 2.6469,33.1119 C2.6769,32.9909 2.7039,32.8709 2.7339,32.7509 C2.8469,32.2939 2.9609,31.8369 3.0759,31.3809 C3.1779,30.9739 3.2799,30.5669 3.3829,30.1599 C3.4499,29.8909 3.5169,29.6209 3.5819,29.3509 C3.5929,29.3079 3.6039,29.2779 3.6569,29.2779 C4.1019,29.2799 4.5489,29.2789 4.9949,29.2799 C5.0029,29.2799 5.0119,29.2849 5.0339,29.2919" id="Fill-22" fill="#FEFEFE"></path>
            <path d="M5.4265,27.706 C5.3855,27.872 5.3465,28.034 5.3065,28.196 C5.2145,28.565 5.1225,28.934 5.0305,29.302 C4.9405,29.665 4.8485,30.028 4.7575,30.392 C4.6675,30.751 4.5775,31.111 4.4895,31.473 C4.4795,31.514 4.4705,31.538 4.4205,31.538 C3.9725,31.536 3.5235,31.537 3.0735,31.536 C3.0665,31.536 3.0585,31.532 3.0395,31.526 C3.0685,31.405 3.0965,31.285 3.1255,31.165 C3.2385,30.708 3.3535,30.251 3.4675,29.795 C3.5705,29.388 3.6725,28.981 3.7745,28.574 C3.8425,28.305 3.9095,28.035 3.9745,27.765 C3.9855,27.722 3.9955,27.692 4.0485,27.692 C4.4945,27.694 4.9415,27.693 5.3875,27.694 C5.3955,27.694 5.4035,27.699 5.4265,27.706" id="Fill-24" fill="#FEFEFE"></path>
            <path d="M1.0417,27.6923 L2.6087,27.6923 C2.5767,27.8333 2.5487,27.9633 2.5177,28.0903 C2.4477,28.3763 2.3807,28.6603 2.3027,28.9423 C2.2917,28.9823 2.2267,29.0343 2.1857,29.0343 C1.7317,29.0413 1.2787,29.0383 0.8257,29.0393 C0.7307,29.0393 0.7197,28.9913 0.7387,28.9133 C0.8237,28.5703 0.9057,28.2263 0.9897,27.8833 C1.0057,27.8223 1.0227,27.7593 1.0417,27.6923" id="Fill-26" fill="#FEFEFE"></path>
        </g>
    </g>
</svg>